<svg width="254" height="255" viewBox="0 0 254 255" fill="none" xmlns="http://www.w3.org/2000/svg">
<mask id="mask0_9_633" style="mask-type:alpha" maskUnits="userSpaceOnUse" x="29" y="32" width="200" height="189">
<path d="M129 221C184.228 221 229 178.787 229 126.714C229 74.6417 184.228 32.4286 129 32.4286C73.7715 32.4286 29 74.6417 29 126.714C29 178.787 73.7715 221 129 221Z" fill="white"/>
</mask>
<g mask="url(#mask0_9_633)">
<path d="M129 221C184.228 221 229 178.787 229 126.714C229 74.6417 184.228 32.4286 129 32.4286C73.7715 32.4286 29 74.6417 29 126.714C29 178.787 73.7715 221 129 221Z" fill="#E6E6E6"/>
<path d="M229 32.4286H29V221H229V32.4286Z" fill="#DEDEDE"/>
</g>
<mask id="mask1_9_633" style="mask-type:alpha" maskUnits="userSpaceOnUse" x="19" y="1" width="220" height="220">
<path d="M29 126.714C29 178.787 73.7715 221 129 221C184.228 221 229 178.787 229 126.714H239V1H19V126.714H29Z" fill="white"/>
</mask>
<g mask="url(#mask1_9_633)">
<mask id="mask2_9_633" style="mask-type:alpha" maskUnits="userSpaceOnUse" x="45" y="29" width="168" height="192">
<path d="M149 142.909V157.357H152.333C185.47 157.357 212.333 182.685 212.333 213.929V221H45.6667V213.929C45.6667 182.685 72.5296 157.357 105.667 157.357H109V142.909C94.6356 136.475 84.3102 123.325 82.5876 107.764C77.7336 107.117 74 103.184 74 98.4286V87.4286C74 82.7567 77.6038 78.8785 82.3334 78.1304V73.2857C82.3334 48.9852 103.227 29.2857 129 29.2857C154.773 29.2857 175.667 48.9852 175.667 73.2857V78.1304C180.396 78.8785 184 82.7567 184 87.4286V98.4286C184 103.184 180.266 107.117 175.412 107.764C173.69 123.325 163.364 136.475 149 142.909Z" fill="white"/>
</mask>
<g mask="url(#mask2_9_633)">
<path d="M149 142.909V157.357H152.333C185.47 157.357 212.333 182.685 212.333 213.929V221H45.6667V213.929C45.6667 182.685 72.5296 157.357 105.667 157.357H109V142.909C94.6356 136.475 84.3102 123.325 82.5876 107.764C77.7336 107.117 74 103.184 74 98.4286V87.4286C74 82.7567 77.6038 78.8785 82.3334 78.1304V73.2857C82.3334 48.9852 103.227 29.2857 129 29.2857C154.773 29.2857 175.667 48.9852 175.667 73.2857V78.1304C180.396 78.8785 184 82.7567 184 87.4286V98.4286C184 103.184 180.266 107.117 175.412 107.764C173.69 123.325 163.364 136.475 149 142.909Z" fill="#D0C6AC"/>
<path d="M239 29.2857H19V221H239V29.2857Z" fill="#EDB98A"/>
<path fill-rule="evenodd" clip-rule="evenodd" d="M175.667 91.3571V109.429C175.667 133.729 154.773 153.429 129 153.429C103.227 153.429 82.3333 133.729 82.3333 109.429V91.3571V103.143C82.3333 127.443 103.227 147.143 129 147.143C154.773 147.143 175.667 127.443 175.667 103.143V91.3571Z" fill="black" fill-opacity="0.1"/>
</g>
<mask id="mask3_9_633" style="mask-type:alpha" maskUnits="userSpaceOnUse" x="45" y="157" width="168" height="64">
<path fill-rule="evenodd" clip-rule="evenodd" d="M157.3 157.589C188.114 159.97 212.333 184.303 212.333 213.969V221H45.6667V213.969C45.6667 184.034 70.3267 159.53 101.538 157.53C101.513 157.823 101.5 158.119 101.5 158.416C101.5 167.737 113.999 175.293 129.417 175.293C144.835 175.293 157.333 167.737 157.333 158.416C157.333 158.139 157.322 157.863 157.3 157.589Z" fill="white"/>
</mask>
<g mask="url(#mask3_9_633)">
<path fill-rule="evenodd" clip-rule="evenodd" d="M157.3 157.589C188.114 159.97 212.333 184.303 212.333 213.969V221H45.6667V213.969C45.6667 184.034 70.3267 159.53 101.538 157.53C101.513 157.823 101.5 158.119 101.5 158.416C101.5 167.737 113.999 175.293 129.417 175.293C144.835 175.293 157.333 167.737 157.333 158.416C157.333 158.139 157.322 157.863 157.3 157.589Z" fill="#E6E6E6"/>
<path d="M239 134.571H19V221H239V134.571Z" fill="#262E33"/>
<g opacity="0.6">
<path d="M129.417 180.741C147.658 180.741 162.446 171.273 162.446 159.595C162.446 147.916 147.658 138.448 129.417 138.448C111.175 138.448 96.3875 147.916 96.3875 159.595C96.3875 171.273 111.175 180.741 129.417 180.741Z" fill="black" fill-opacity="0.16"/>
</g>
</g>
<path fill-rule="evenodd" clip-rule="evenodd" d="M102.987 157.453C71.0936 158.775 45.6667 183.572 45.6667 213.969H45.6667V221H103.468C100.634 211.509 99 200.343 99 188.393C99 177.136 100.45 166.574 102.987 157.453ZM155.365 221H212.333V213.969C212.333 183.841 187.354 159.214 155.857 157.494C158.388 166.606 159.833 177.153 159.833 188.393C159.833 200.343 158.199 211.509 155.365 221Z" fill="#3A4C5A"/>
<path fill-rule="evenodd" clip-rule="evenodd" d="M169.833 202.143L177.797 196.512C178.999 195.661 180.657 195.675 181.843 196.545L187.333 200.571L169.833 202.143Z" fill="#E6E6E6"/>
<path fill-rule="evenodd" clip-rule="evenodd" d="M103.167 156.571C99.8333 171.762 101.222 193.238 107.333 221H94L82.3333 192.714L87.3333 185.643L82.3333 180.929L98.1667 157.357C99.8564 156.862 101.523 156.6 103.167 156.571Z" fill="#2F4351"/>
<path fill-rule="evenodd" clip-rule="evenodd" d="M154.833 156.571C158.167 171.762 156.778 193.238 150.667 221H164L175.667 192.714L170.667 185.643L175.667 180.929L159.833 157.357C158.144 156.862 156.477 156.6 154.833 156.571Z" fill="#2F4351"/>
<mask id="mask4_9_633" style="mask-type:alpha" maskUnits="userSpaceOnUse" x="113" y="116" width="32" height="16">
<path fill-rule="evenodd" clip-rule="evenodd" d="M113.265 118.172C114.146 125.63 120.855 131.429 129 131.429C137.17 131.429 143.895 125.594 144.743 118.103C144.811 117.5 144.097 116.5 143.202 116.5C130.791 116.5 121.282 116.5 114.906 116.5C114.006 116.5 113.177 117.426 113.265 118.172Z" fill="white"/>
</mask>
<g mask="url(#mask4_9_633)">
<path fill-rule="evenodd" clip-rule="evenodd" d="M113.265 118.172C114.146 125.63 120.855 131.429 129 131.429C137.17 131.429 143.895 125.594 144.743 118.103C144.811 117.5 144.097 116.5 143.202 116.5C130.791 116.5 121.282 116.5 114.906 116.5C114.006 116.5 113.177 117.426 113.265 118.172Z" fill="black" fill-opacity="0.7"/>
<path d="M138.167 107.857H120.667C118.365 107.857 116.5 109.616 116.5 111.786V116.5C116.5 118.67 118.365 120.429 120.667 120.429H138.167C140.468 120.429 142.333 118.67 142.333 116.5V111.786C142.333 109.616 140.468 107.857 138.167 107.857Z" fill="white"/>
<path d="M124.833 142.429C129.896 142.429 134 138.559 134 133.786C134 129.012 129.896 125.143 124.833 125.143C119.771 125.143 115.667 129.012 115.667 133.786C115.667 138.559 119.771 142.429 124.833 142.429Z" fill="#FF4F6D"/>
<path d="M133.167 142.429C138.229 142.429 142.333 138.559 142.333 133.786C142.333 129.012 138.229 125.143 133.167 125.143C128.104 125.143 124 129.012 124 133.786C124 138.559 128.104 142.429 133.167 142.429Z" fill="#FF4F6D"/>
</g>
<path fill-rule="evenodd" clip-rule="evenodd" d="M119 103.143C119 106.614 123.477 109.429 129 109.429C134.523 109.429 139 106.614 139 103.143" fill="black" fill-opacity="0.16"/>
<path d="M107.333 93.7143C110.095 93.7143 112.333 91.6036 112.333 89C112.333 86.3964 110.095 84.2857 107.333 84.2857C104.572 84.2857 102.333 86.3964 102.333 89C102.333 91.6036 104.572 93.7143 107.333 93.7143Z" fill="black" fill-opacity="0.6"/>
<path fill-rule="evenodd" clip-rule="evenodd" d="M141.175 91.3218C142.489 88.2431 145.791 85.9393 149.809 85.6744C153.813 85.4105 157.412 87.2445 159.174 90.1034C159.698 90.9527 159.099 91.7155 158.401 91.2255C156.241 89.7082 153.271 88.8675 150.062 89.0791C146.952 89.2841 144.211 90.4375 142.302 92.1331C141.604 92.753 140.79 92.2223 141.175 91.3218Z" fill="black" fill-opacity="0.6"/>
<path fill-rule="evenodd" clip-rule="evenodd" d="M104.456 70.2594C99.6169 70.4702 91.7935 73.7856 91.9951 78.3867C92.0017 78.5373 92.2363 78.6034 92.351 78.4876C94.6467 76.1624 110.947 73.8128 116.688 75.0579C117.214 75.1721 117.613 74.6833 117.28 74.3303C114.428 71.3066 108.792 70.0666 104.456 70.2594Z" fill="black" fill-opacity="0.6"/>
<path fill-rule="evenodd" clip-rule="evenodd" d="M154.377 70.2594C159.216 70.4702 167.04 73.7856 166.838 78.3867C166.832 78.5373 166.597 78.6034 166.482 78.4876C164.187 76.1624 147.886 73.8128 142.145 75.0579C141.619 75.1721 141.22 74.6833 141.553 74.3303C144.405 71.3066 150.042 70.0666 154.377 70.2594Z" fill="black" fill-opacity="0.6"/>
<mask id="mask5_9_633" style="mask-type:alpha" maskUnits="userSpaceOnUse" x="19" y="1" width="220" height="220">
<path d="M239 1H19V221H239V1Z" fill="white"/>
</mask>
<g mask="url(#mask5_9_633)">
<mask id="mask6_9_633" style="mask-type:alpha" maskUnits="userSpaceOnUse" x="81" y="78" width="96" height="70">
<path fill-rule="evenodd" clip-rule="evenodd" d="M143.524 134.704C141.429 136.506 139.198 137.317 136.377 136.75C135.892 136.653 133.914 133.184 129 133.184C124.086 133.184 122.108 136.653 121.622 136.75C118.802 137.317 116.571 136.506 114.476 134.704C110.538 131.315 107.264 126.642 109.232 121.544C110.257 118.886 111.925 115.969 114.959 115.122C118.199 114.218 122.747 115.12 126.012 114.503C127.07 114.303 128.226 113.947 129 113.357C129.774 113.947 130.93 114.303 131.987 114.503C135.252 115.12 139.801 114.218 143.041 115.122C146.075 115.969 147.743 118.886 148.768 121.544C150.736 126.642 147.462 131.315 143.524 134.704ZM175.734 78C172.892 84.6002 173.99 92.817 173.464 99.7453C173.037 105.377 171.781 113.817 166.477 117.454C163.765 119.314 158.829 122.44 155.285 121.568C152.845 120.968 152.585 114.371 149.379 111.901C145.743 109.1 141.202 107.87 136.624 108.06C134.649 108.142 130.653 108.122 129 109.555C127.346 108.122 123.351 108.142 121.376 108.06C116.797 107.87 112.257 109.1 108.62 111.901C105.415 114.371 105.155 120.968 102.715 121.568C99.1715 122.44 94.2349 119.314 91.5225 117.454C86.2187 113.817 84.9635 105.377 84.5357 99.7453C84.0101 92.817 85.1076 84.6002 82.2657 78C80.8831 78 81.795 90.6727 81.795 90.6727V106.667C81.8214 118.679 89.7792 136.658 107.423 143.523C111.738 145.202 121.513 147.929 129 147.929C136.487 147.929 146.261 145.462 150.577 143.783C168.221 136.917 176.178 118.679 176.205 106.667V90.6727C176.205 90.6727 177.117 78 175.734 78Z" fill="white"/>
</mask>
<g mask="url(#mask6_9_633)">
<path fill-rule="evenodd" clip-rule="evenodd" d="M143.524 134.704C141.429 136.506 139.198 137.317 136.377 136.75C135.892 136.653 133.914 133.184 129 133.184C124.086 133.184 122.108 136.653 121.622 136.75C118.802 137.317 116.571 136.506 114.476 134.704C110.538 131.315 107.264 126.642 109.232 121.544C110.257 118.886 111.925 115.969 114.959 115.122C118.199 114.218 122.747 115.12 126.012 114.503C127.07 114.303 128.226 113.947 129 113.357C129.774 113.947 130.93 114.303 131.987 114.503C135.252 115.12 139.801 114.218 143.041 115.122C146.075 115.969 147.743 118.886 148.768 121.544C150.736 126.642 147.462 131.315 143.524 134.704ZM175.734 78C172.892 84.6002 173.99 92.817 173.464 99.7453C173.037 105.377 171.781 113.817 166.477 117.454C163.765 119.314 158.829 122.44 155.285 121.568C152.845 120.968 152.585 114.371 149.379 111.901C145.743 109.1 141.202 107.87 136.624 108.06C134.649 108.142 130.653 108.122 129 109.555C127.346 108.122 123.351 108.142 121.376 108.06C116.797 107.87 112.257 109.1 108.62 111.901C105.415 114.371 105.155 120.968 102.715 121.568C99.1715 122.44 94.2349 119.314 91.5225 117.454C86.2187 113.817 84.9635 105.377 84.5357 99.7453C84.0101 92.817 85.1076 84.6002 82.2657 78C80.8831 78 81.795 90.6727 81.795 90.6727V106.667C81.8214 118.679 89.7792 136.658 107.423 143.523C111.738 145.202 121.513 147.929 129 147.929C136.487 147.929 146.261 145.462 150.577 143.783C168.221 136.917 176.178 118.679 176.205 106.667V90.6727C176.205 90.6727 177.117 78 175.734 78Z" fill="#4A312C"/>
<path d="M252.333 57.5714H32.3333V249.286H252.333V57.5714Z" fill="#4A312C"/>
</g>
<mask id="mask7_9_633" style="mask-type:alpha" maskUnits="userSpaceOnUse" x="77" y="8" width="105" height="72">
<path fill-rule="evenodd" clip-rule="evenodd" d="M171.233 31.6026C175.738 27.7131 176.823 19.8269 174.265 14.7102C171.124 8.42802 164.751 7.64099 158.644 10.4039C152.887 13.0085 147.763 13.8762 141.458 12.6142C135.41 11.4034 129.671 9.26776 123.419 8.91704C113.148 8.34086 103.169 11.9329 96.1693 19.173C94.8336 20.5542 93.7574 22.1335 92.7402 23.7342C91.9263 25.0149 91.0088 26.3891 90.6625 27.8653C90.4978 28.5672 90.8044 30.2992 90.4336 30.8743C90.0326 31.4954 88.5204 32.065 87.8758 32.5259C86.5702 33.4598 85.4389 34.5138 84.3928 35.7058C82.171 38.2371 80.9481 40.881 79.9195 44.0122C76.5004 54.419 76.2107 66.7967 80.6307 77.0153C81.2199 78.378 83.0459 81.2203 84.1193 78.3023C84.3314 77.7256 83.8405 75.7927 83.8416 75.2108C83.8455 73.0736 85.0967 58.9239 90.5476 50.9974C92.3218 48.4172 100.525 38.7553 102.2 38.6778C103.088 40.0079 112.1 48.5062 135.486 47.5103C146.038 47.0609 154.152 42.5911 156.101 40.6535C156.958 45.0007 166.928 51.5088 168.447 54.1867C172.835 61.9225 173.809 77.9966 175.484 77.9665C177.159 77.9363 178.362 73.8512 178.707 73.0713C181.266 67.2763 181.702 60.0031 181.429 53.7752C181.073 45.7593 177.564 37.0972 171.233 31.6026Z" fill="white"/>
</mask>
<g mask="url(#mask7_9_633)">
<path fill-rule="evenodd" clip-rule="evenodd" d="M171.233 31.6026C175.738 27.7131 176.823 19.8269 174.265 14.7102C171.124 8.42802 164.751 7.64099 158.644 10.4039C152.887 13.0085 147.763 13.8762 141.458 12.6142C135.41 11.4034 129.671 9.26776 123.419 8.91704C113.148 8.34086 103.169 11.9329 96.1693 19.173C94.8336 20.5542 93.7574 22.1335 92.7402 23.7342C91.9263 25.0149 91.0088 26.3891 90.6625 27.8653C90.4978 28.5672 90.8044 30.2992 90.4336 30.8743C90.0326 31.4954 88.5204 32.065 87.8758 32.5259C86.5702 33.4598 85.4389 34.5138 84.3928 35.7058C82.171 38.2371 80.9481 40.881 79.9195 44.0122C76.5004 54.419 76.2107 66.7967 80.6307 77.0153C81.2199 78.378 83.0459 81.2203 84.1193 78.3023C84.3314 77.7256 83.8405 75.7927 83.8416 75.2108C83.8455 73.0736 85.0967 58.9239 90.5476 50.9974C92.3218 48.4172 100.525 38.7553 102.2 38.6778C103.088 40.0079 112.1 48.5062 135.486 47.5103C146.038 47.0609 154.152 42.5911 156.101 40.6535C156.958 45.0007 166.928 51.5088 168.447 54.1867C172.835 61.9225 173.809 77.9966 175.484 77.9665C177.159 77.9363 178.362 73.8512 178.707 73.0713C181.266 67.2763 181.702 60.0031 181.429 53.7752C181.073 45.7593 177.564 37.0972 171.233 31.6026Z" fill="#28354B"/>
<path d="M238.167 0.999992H18.1667V221H238.167V0.999992Z" fill="#4A312C"/>
</g>
</g>
</g>
<g filter="url(#filter0_dd_9_633)">
<path d="M75.9149 18.4841C74.3832 15.454 70.6878 14.2097 67.72 15.8589C51.6359 24.7971 37.7308 37.1567 27.0283 52.0711C15.1391 68.6392 7.56903 87.8486 4.98869 107.998C2.40835 128.147 4.89737 148.614 12.2353 167.585C19.5732 186.557 31.5335 203.448 47.0567 216.762C62.58 230.076 81.187 239.402 101.23 243.914C121.272 248.426 142.132 247.985 161.961 242.629C181.79 237.274 199.976 227.169 214.908 213.211C228.299 200.694 238.703 185.423 245.403 168.51C246.679 165.289 244.887 161.723 241.596 160.638V160.638C238.339 159.564 234.842 161.327 233.563 164.509C227.527 179.532 218.237 193.098 206.317 204.24C192.878 216.803 176.511 225.896 158.665 230.716C140.819 235.536 122.045 235.933 104.007 231.872C85.9683 227.811 69.222 219.418 55.2511 207.435C41.2801 195.453 30.5159 180.251 23.9118 163.177C17.3076 146.102 15.0675 127.682 17.3898 109.548C19.7121 91.4137 26.5252 74.1253 37.2255 59.214C46.7157 45.989 59.0038 34.996 73.2089 26.9809C76.2065 25.2896 77.4676 21.5558 75.9149 18.4841V18.4841Z" fill="#CEEAF3" fill-opacity="0.53" shape-rendering="crispEdges"/>
</g>
<defs>
<filter id="filter0_dd_9_633" x="0" y="15.1259" width="249.816" height="239.874" filterUnits="userSpaceOnUse" color-interpolation-filters="sRGB">
<feFlood flood-opacity="0" result="BackgroundImageFix"/>
<feColorMatrix in="SourceAlpha" type="matrix" values="0 0 0 0 0 0 0 0 0 0 0 0 0 0 0 0 0 0 127 0" result="hardAlpha"/>
<feOffset dy="4"/>
<feGaussianBlur stdDeviation="2"/>
<feComposite in2="hardAlpha" operator="out"/>
<feColorMatrix type="matrix" values="0 0 0 0 0 0 0 0 0 0 0 0 0 0 0 0 0 0 0.25 0"/>
<feBlend mode="normal" in2="BackgroundImageFix" result="effect1_dropShadow_9_633"/>
<feColorMatrix in="SourceAlpha" type="matrix" values="0 0 0 0 0 0 0 0 0 0 0 0 0 0 0 0 0 0 127 0" result="hardAlpha"/>
<feOffset dy="4"/>
<feGaussianBlur stdDeviation="2"/>
<feComposite in2="hardAlpha" operator="out"/>
<feColorMatrix type="matrix" values="0 0 0 0 0 0 0 0 0 0 0 0 0 0 0 0 0 0 0.25 0"/>
<feBlend mode="normal" in2="effect1_dropShadow_9_633" result="effect2_dropShadow_9_633"/>
<feBlend mode="normal" in="SourceGraphic" in2="effect2_dropShadow_9_633" result="shape"/>
</filter>
</defs>
</svg>
