<svg width="13" height="13" viewBox="0 0 13 13" fill="none" xmlns="http://www.w3.org/2000/svg">
<path fill-rule="evenodd" clip-rule="evenodd" d="M4.44471 12.4999H7.0066V7.78998C7.0066 7.53796 7.02375 7.28586 7.09321 7.10608C7.28337 6.60222 7.95244 6.08042 8.67908 6.08042C9.63128 6.08042 10.0808 6.85426 10.0808 7.98776L10.0808 12.5L12.6426 12.4999V7.66392C12.6426 5.0733 11.3448 3.86798 9.61375 3.86798C8.19443 3.86794 7.33531 4.71336 6.98916 5.28896H7.0066L7.00982 4.1666H4.44792C4.48243 4.9579 4.44471 12.4999 4.44471 12.4999V12.4999ZM1.61914 2.60412C2.41315 2.60412 2.90749 2.02504 2.90749 1.30198C2.89277 0.56272 2.41315 0 1.63415 0C0.854995 0 0.345703 0.56276 0.345703 1.30198C0.345703 2.02504 0.839983 2.60412 1.60428 2.60412H1.61914V2.60412ZM2.90442 12.4999L2.90757 4.1666H0.348851L0.345703 12.4999H2.90442Z" fill="#008DD2"/>
</svg>
