<svg width="198" height="192" viewBox="0 0 198 192" fill="none" xmlns="http://www.w3.org/2000/svg">
<ellipse cx="99" cy="96" rx="99" ry="96" fill="#FBFBFB" fill-opacity="0.53"/>
<path d="M197.5 96C197.5 148.729 153.415 191.5 99 191.5C44.5853 191.5 0.5 148.729 0.5 96C0.5 43.2712 44.5853 0.5 99 0.5C153.415 0.5 197.5 43.2712 197.5 96Z" stroke="#020202" stroke-opacity="0.02"/>
<path d="M99.898 96.1721H123.526V98.2853H99.898V96.1721Z" fill="black"/>
<path d="M109.238 61.918V94.06H111.351L111.35 61.918C111.35 59.889 112.999 58.2626 115.006 58.2626H123.524V56.1494H115.007C111.837 56.1494 109.238 58.7276 109.238 61.9182" fill="black"/>
<path d="M111.35 132.542V100.4H109.237V132.542C109.237 135.712 111.836 138.311 115.006 138.311H123.524V136.198L115.006 136.199C112.999 136.199 111.35 134.55 111.35 132.542" fill="black"/>
<path d="M141.76 87.3681H129.22C127.248 87.3681 125.644 88.972 125.644 90.9455V103.528C125.644 105.488 127.238 107.084 129.199 107.084H141.76C143.733 107.084 145.335 105.477 145.335 103.506V90.9453C145.335 88.9719 143.733 87.3679 141.76 87.3679" fill="black"/>
<path d="M90.56 74.644H59.888C55.9068 74.644 52.6654 77.8838 52.6654 81.865V112.641C52.6654 116.595 55.8818 119.811 59.8358 119.811H90.5598C94.541 119.811 97.7808 116.57 97.7808 112.589V81.8648C97.7808 77.8836 94.541 74.6444 90.5598 74.6444L90.56 74.644ZM88.2816 107.63C88.2816 109.109 87.0769 110.293 85.5956 110.293H64.8436C63.3663 110.293 62.1812 109.109 62.1812 107.63V86.8164C62.1812 85.3586 63.3671 84.154 64.8436 84.154H85.5956C87.0768 84.154 88.2816 85.3587 88.2816 86.8164V107.63Z" fill="black"/>
<path d="M141.76 126.944H129.22C127.248 126.944 125.644 128.548 125.644 130.521V143.103C125.644 145.064 127.238 146.66 129.199 146.66H141.76C143.733 146.66 145.335 145.053 145.335 143.082V130.521C145.335 128.548 143.733 126.944 141.76 126.944" fill="black"/>
<path d="M141.76 47.3391H129.22C127.248 47.3391 125.644 48.943 125.644 50.9165V63.4985C125.644 65.4594 127.238 67.0547 129.199 67.0547H141.76C143.733 67.0547 145.335 65.4484 145.335 63.4773V50.9171C145.335 48.9428 143.733 47.3389 141.76 47.3389" fill="black"/>
</svg>
